<svg width="46" height="46" viewBox="0 0 46 46" fill="none" xmlns="http://www.w3.org/2000/svg">
<g clip-path="url(#clip0_9_86)">
<path d="M12.2727 12.4695C11.3703 12.7246 10.544 13.1964 9.86584 13.8439C9.18762 14.4914 8.67805 15.295 8.38152 16.1846L0 41.3282L1.3198 42.648L14.8063 29.1616C14.5376 28.5992 14.375 27.9774 14.375 27.3126C14.375 24.9308 16.3057 23.0001 18.6875 23.0001C21.0693 23.0001 23 24.9308 23 27.3126C23 29.6944 21.0693 31.6251 18.6875 31.6251C18.0227 31.6251 17.4009 31.4625 16.8385 31.1939L3.35207 44.6803L4.67188 46.0001L29.8155 37.6186C30.7051 37.322 31.5087 36.8125 32.1562 36.1343C32.8037 35.4561 33.2755 34.6298 33.5306 33.7274L37.375 20.1251L25.875 8.6251L12.2727 12.4695ZM44.7368 6.66381L39.3363 1.26331C37.6517 -0.421265 34.9196 -0.421265 33.235 1.26331L28.1543 6.34397L39.6561 17.8458L44.7368 12.7651C46.4214 11.0805 46.4214 8.34928 44.7368 6.66381Z" fill="white"/>
</g>
<defs>
<clipPath id="clip0_9_86">
<rect width="46" height="46" fill="white"/>
</clipPath>
</defs>
</svg>
