<svg width="50" height="40" viewBox="0 0 50 40" fill="none" xmlns="http://www.w3.org/2000/svg">
<path d="M12.8829 31.1986C12.7987 31.2884 12.6977 31.3608 12.5855 31.4115C12.4733 31.4623 12.3523 31.4904 12.2292 31.4944C12.1061 31.4984 11.9835 31.478 11.8683 31.4346C11.7531 31.3912 11.6476 31.3255 11.5578 31.2413L0.296306 20.6836C0.202776 20.596 0.128225 20.49 0.0772607 20.3724C0.026296 20.2547 0 20.1279 0 19.9997C0 19.8715 0.026296 19.7447 0.0772607 19.627C0.128225 19.5094 0.202776 19.4034 0.296306 19.3158L11.5578 8.75812C11.6476 8.67391 11.7531 8.60822 11.8683 8.56479C11.9835 8.52136 12.1061 8.50105 12.2292 8.50501C12.3523 8.50898 12.4733 8.53714 12.5855 8.5879C12.6977 8.63865 12.7987 8.71101 12.8829 8.80083L16.2821 12.4267C16.368 12.5183 16.4346 12.6263 16.478 12.7441C16.5213 12.862 16.5406 12.9874 16.5345 13.1129C16.5285 13.2383 16.4974 13.3613 16.4429 13.4744C16.3884 13.5876 16.3118 13.6887 16.2175 13.7717L9.14058 19.9998L16.2175 26.2279C16.3118 26.3109 16.3884 26.412 16.4429 26.5251C16.4974 26.6383 16.5285 26.7613 16.5345 26.8867C16.5406 27.0122 16.5213 27.1376 16.478 27.2554C16.4346 27.3733 16.368 27.4813 16.2821 27.5729L12.8829 31.1986ZM21.7883 39.9623L17.0222 38.5786C16.7834 38.5092 16.582 38.3479 16.4621 38.13C16.3423 37.9122 16.3139 37.6556 16.3831 37.4168L27.0498 0.67617C27.1192 0.437397 27.2805 0.23595 27.4984 0.116112C27.7162 -0.0037254 27.9728 -0.0321411 28.2116 0.0371108L32.9776 1.42079C33.0958 1.45512 33.2061 1.5124 33.3022 1.58937C33.3983 1.66634 33.4783 1.76148 33.5376 1.86937C33.597 1.97725 33.6345 2.09577 33.648 2.21814C33.6615 2.34052 33.6508 2.46436 33.6165 2.5826L22.9498 39.3232C22.9155 39.4415 22.8583 39.5518 22.7814 39.648C22.7045 39.7441 22.6094 39.8241 22.5015 39.8835C22.3936 39.9428 22.2751 39.9803 22.1527 39.9938C22.0304 40.0074 21.9065 39.9967 21.7883 39.9623ZM49.7036 20.6836L38.4422 31.2413C38.3523 31.3255 38.2468 31.3912 38.1316 31.4346C38.0164 31.478 37.8938 31.4984 37.7707 31.4944C37.6477 31.4904 37.5266 31.4623 37.4144 31.4115C37.3023 31.3608 37.2012 31.2884 37.117 31.1986L33.7177 27.5727C33.6318 27.4811 33.5652 27.3731 33.5218 27.2553C33.4784 27.1374 33.4592 27.012 33.4652 26.8866C33.4712 26.7611 33.5024 26.6381 33.5569 26.525C33.6113 26.4118 33.688 26.3107 33.7823 26.2277L40.8593 19.9998L33.7824 13.7717C33.6881 13.6887 33.6115 13.5876 33.557 13.4744C33.5026 13.3613 33.4714 13.2383 33.4654 13.1129C33.4593 12.9874 33.4786 12.862 33.522 12.7441C33.5653 12.6263 33.6319 12.5183 33.7178 12.4267L37.1172 8.80083C37.2014 8.71101 37.3024 8.63865 37.4146 8.5879C37.5268 8.53714 37.6478 8.50898 37.7709 8.50501C37.8939 8.50105 38.0166 8.52136 38.1318 8.56479C38.247 8.60822 38.3525 8.67391 38.4423 8.75812L49.7038 19.3158C49.7973 19.4035 49.8718 19.5094 49.9228 19.627C49.9737 19.7447 50 19.8715 50 19.9997C50 20.1279 49.9737 20.2548 49.9227 20.3724C49.8717 20.49 49.7971 20.596 49.7036 20.6836Z" fill="white"/>
</svg>
